#format: frame checksums
#version: 2
#hash: MD5
#tb 0: 1/30
#media_type 0: video
#codec_id 0: rawvideo
#dimensions 0: 320x180
#sar 0: 0/1
#stream#, dts,        pts, duration,     size, hash
0,          0,          0,        1,   172800, 047b1afa3ad96f77a999e7bb58244ae4
0,          1,          1,        1,   172800, c2433237f23dc2d1625517d96a9e1ee4
0,          2,          2,        1,   172800, 8d82bd3e16e39cf96de6aa664e72f156
0,          3,          3,        1,   172800, 9a7830bc296081caef79c314a4709b2c
0,          4,          4,        1,   172800, 75d648bb7aa5607af123ca15299affb5
0,          5,          5,        1,   172800, 13e1947659cc92240616b4e3dd2672b8
0,          6,          6,        1,   172800, bae4796f388af4665720f5b8718837c7
0,          7,          7,        1,   172800, 133025206361c2a0d0098d8378734c48
0,          8,          8,        1,   172800, e9be8e3021dd13ef6624a3eddea236b0
0,          9,          9,        1,   172800, e3c235f9e9d1e06429fd14b5f09dbb05
0,         10,         10,        1,   172800, 19dd0deed030395bc34d6c1bfd73b594
0,         11,         11,        1,   172800, 5b0acb67dfe831eb1daef730fd6f23d9
0,         12,         12,        1,   172800, 4db0649dfb2f7b038ab482a181343d83
0,         13,         13,        1,   172800, 85a99d82a248cbe864e121fdcec367cd
0,         14,         14,        1,   172800, 1dc5e57694097b4f259200e837cdfba6
0,         15,         15,        1,   172800, 9d0a21dd2495df20c745f0b931e3458c
0,         16,         16,        1,   172800, fc4a99b1baeafc5dfa0942cab160e752
0,         17,         17,        1,   172800, c485a1ea47d11b075b0cb66a276bf194
0,         18,         18,        1,   172800, b797334fed11069809796f0b760b4285
0,         19,         19,        1,   172800, 8788154a2ab52f7e0878554dab08a578
0,         20,         20,        1,   172800, 0c73d672dbf92eb63474c78169e3ed02
0,         21,         21,        1,   172800, e779e283aaab0e52715fe4c071778a04
0,         22,         22,        1,   172800, 57bfc973c1951fafe96a90b42bd439b7
0,         23,         23,        1,   172800, c530b7a79d1d55eae9d5880affd8d44e
0,         24,         24,        1,   172800, 01da20827d40f282712aa3f0cc182953
0,         25,         25,        1,   172800, db1534f6a894dff55390f3f4336783c4
0,         26,         26,        1,   172800, 395411e0dc69c8828c4b93e66fcc2c8e
0,         27,         27,        1,   172800, 82751298d276b7c06221c16260a8e332
0,         28,         28,        1,   172800, a04a6edfb118849076a496be457ff425
0,         29,         29,        1,   172800, 762841f0bde6a07d14ae80b20a1de5bf
0,         30,         30,        1,   172800, fa0f3b65465c1fab3920d5a7284d0948
0,         31,         31,        1,   172800, a71f1d1ae073c599674070245bcc0967
0,         32,         32,        1,   172800, 1d71057613ae561b5e2142cbb46eba3b
0,         33,         33,        1,   172800, 0029dd9507f7aba7b648a5651394eb03
0,         34,         34,        1,   172800, 8abb7785e9f2af240e54724b87cd4490
0,         35,         35,        1,   172800, 3f3e9ccaf4136d89dbb53e78015f41d1
0,         36,         36,        1,   172800, 0f3a706fd67ee6d78464b2807cba7df8
0,         37,         37,        1,   172800, 9c37e3d1ba74c52e7fb5ff043fe5b602
0,         38,         38,        1,   172800, dec63bb3f424a595fc682505372f8abe
0,         39,         39,        1,   172800, 3cbf1909215d8a52b083ca0111a3153d
0,         40,         40,        1,   172800, 1fa4b2078fe1a8d934f8ce493d332868
0,         41,         41,        1,   172800, 863d7027d9a8ef0480cff9c1864059fb
0,         42,         42,        1,   172800, d841d0d970e39fab8f814ce21e0adddf
0,         43,         43,        1,   172800, d391c785fac6819cdb06bc2987ed6658
0,         44,         44,        1,   172800, fdc5c1b81a9993ba6683daa4b828b7c1
0,         45,         45,        1,   172800, 2634c735f536bf9c32e09a2c5ba272bb
0,         46,         46,        1,   172800, 7ce6f5f15079ced120f9dafeac17e1b5
0,         47,         47,        1,   172800, 6083af1465c8d7f2681b48b54e052f48
0,         48,         48,        1,   172800, 3797c772c8e88dc96dbc029178bfdf29
0,         49,         49,        1,   172800, 0a501298c4bbe4c4c2d86facd83de8e0
0,         50,         50,        1,   172800, 26d32bfc7f90caba18decce5104e7a00
0,         51,         51,        1,   172800, 2ebd4ac5f5001d090ebc6b0f9b940a67
0,         52,         52,        1,   172800, 2d7123612632a76c6022bac88d894b7e
0,         53,         53,        1,   172800, 26c15dd3738f48dc61c16f0924a2d458
0,         54,         54,        1,   172800, b766043f62011ed01d53313c52f4fa52
0,         55,         55,        1,   172800, 42d2d5ab17d4a42ebba58550ecc1b2ba
0,         56,         56,        1,   172800, d7cd45d0ccecb930b0b55968c0414cd7
0,         57,         57,        1,   172800, 3c24e83d5545323cc6d4240031030f4a
0,         58,         58,        1,   172800, de7a7e13ce91dc77cc1eff15123de567
0,         59,         59,        1,   172800, 4a0e8ba61d0516d79d24043311fa1d1a
0,         60,         60,        1,   172800, 8957c28c51b46a4cc8b1390fc9741a23
0,         61,         61,        1,   172800, 17b86ca544050d30fad617bdf018e211
0,         62,         62,        1,   172800, 66b664648e47c3eab1e809c67407f7d7
0,         63,         63,        1,   172800, ac42c9e2a6b71d4ca34ac8fee4d0bdb1
0,         64,         64,        1,   172800, 27f215e1b05674d0c45c32384cc70829
0,         65,         65,        1,   172800, 7d51fd2d9bab357e5c39b9bcca7152eb
0,         66,         66,        1,   172800, 73c8b09f3a24143f584017a1cf7212f8
0,         67,         67,        1,   172800, 133b06285a7bff0ff92ef29f1bf77bf4
0,         68,         68,        1,   172800, bea412cc242572dde739bf28d0cc44b4
0,         69,         69,        1,   172800, c6d77db72424e280a8cadf10a4e855cb
0,         70,         70,        1,   172800, 6e54efb783fe0206b896ce50f905096c
0,         71,         71,        1,   172800, 29ce5f94ad2d74d3c684207a3f5c8ef1
0,         72,         72,        1,   172800, 91b174888406e04fd2e5512750f2e162
0,         73,         73,        1,   172800, 39dd91fe202d2bad5f46d55240ce78a3
0,         74,         74,        1,   172800, 116868049577589cbdc3e1e288fca754
0,         75,         75,        1,   172800, 496a5e61b313e162237fbfc92854a307
0,         76,         76,        1,   172800, c5d9750ec084b0e679c8510186ec793c
0,         77,         77,        1,   172800, eb070d7e964e187a0672b934a7e99de2
0,         78,         78,        1,   172800, ac7f020f88f51d24fdec30c8789b1c5e
0,         79,         79,        1,   172800, 3c96b1026de982370f511d4f4970bc6e
0,         80,         80,        1,   172800, 2461342a42cb628646a70e303342f37c
0,         81,         81,        1,   172800, 1051fd8a11e29fa082d4b78c43240e3a
0,         82,         82,        1,   172800, 0ea857095d80ef7003ceaa25a5baaf46
0,         83,         83,        1,   172800, 9c511b403897c2f4b60dd16c78a8c905
0,         84,         84,        1,   172800, ea032fee0415c8e84beb7ba857a1bd58
0,         85,         85,        1,   172800, a5f1811e8b3b2810efa201e75430cda1
0,         86,         86,        1,   172800, b86f5ce14c92ce8545e280d0a4a000f1
0,         87,         87,        1,   172800, ee94bedc567474a0691a6cb3e8ca864b
0,         88,         88,        1,   172800, 96143ddfc5c5fe48339704f22845bb7d
0,         89,         89,        1,   172800, 9b28fbdc18128bdaaeba6cf3a89d4b36
0,         90,         90,        1,   172800, 9b28fbdc18128bdaaeba6cf3a89d4b36
